<?xml version="1.0" standalone="no"?>
<!DOCTYPE svg PUBLIC "-//W3C//DTD SVG 20010904//EN"
 "http://www.w3.org/TR/2001/REC-SVG-20010904/DTD/svg10.dtd">
<svg version="1.0" xmlns="http://www.w3.org/2000/svg"
 width="768.000000pt" height="768.000000pt" viewBox="0 0 768.000000 768.000000"
 preserveAspectRatio="xMidYMid meet">
<metadata>
Created by potrace 1.11, written by Peter Selinger 2001-2013
</metadata>
<g transform="translate(0.000000,768.000000) scale(0.100000,-0.100000)"
fill="#000000" stroke="none">
<path d="M2698 7344 c-114 -27 -232 -105 -302 -198 -23 -31 -73 -116 -110
-189 -69 -134 -101 -195 -215 -412 -35 -66 -89 -169 -120 -230 -31 -60 -58
-112 -61 -115 -3 -3 -32 -57 -64 -120 -32 -63 -82 -158 -109 -210 -108 -204
-127 -247 -127 -292 0 -84 40 -136 157 -204 52 -31 347 -204 363 -214 96 -58
152 -90 160 -90 6 0 10 -4 10 -9 0 -5 8 -11 18 -14 9 -4 35 -17 57 -30 265
-160 380 -227 387 -227 4 0 8 -5 8 -11 0 -5 4 -8 9 -5 5 3 14 0 20 -8 23 -28
105 -55 154 -51 74 7 118 41 159 125 7 14 15 27 18 30 3 3 14 23 26 45 26 50
86 160 136 248 21 38 38 70 38 72 0 2 22 42 50 90 28 48 50 88 50 90 0 4 112
208 178 325 14 25 32 59 40 75 8 17 24 42 34 58 11 15 16 27 13 27 -3 0 2 12
12 28 30 46 43 66 50 82 8 17 199 367 213 390 5 8 21 38 36 65 14 28 30 54 34
58 7 8 31 -26 82 -123 16 -30 33 -59 37 -65 5 -5 22 -35 38 -65 53 -97 85
-155 93 -165 4 -5 19 -31 34 -57 14 -27 38 -69 52 -95 15 -27 30 -52 34 -58 4
-5 21 -35 37 -65 16 -30 78 -139 136 -241 105 -182 117 -209 97 -209 -14 0
-41 -45 -44 -74 -6 -54 23 -75 196 -143 89 -35 177 -70 193 -77 37 -17 198
-81 205 -81 3 0 10 -3 15 -6 6 -4 87 -37 180 -74 94 -37 185 -74 203 -82 18
-9 44 -15 58 -15 33 0 74 21 74 39 0 7 5 13 12 13 6 0 9 3 5 6 -3 4 0 19 9 35
8 16 14 30 14 31 -2 4 10 39 25 73 7 17 25 65 40 109 14 43 30 86 35 95 5 9
19 45 31 81 12 36 27 76 32 90 6 14 11 30 13 35 1 6 41 113 88 239 47 126 86
242 86 258 0 31 -40 77 -69 79 -61 4 -48 -14 -182 264 -89 186 -150 312 -311
644 -102 212 -157 290 -238 337 -16 10 -30 22 -30 26 0 4 -9 8 -19 8 -11 0
-21 4 -23 9 -1 4 -30 19 -63 32 l-60 24 -1190 2 c-987 1 -1200 -1 -1247 -13z"/>
<path d="M6500 4663 c-25 -9 -405 -237 -408 -245 -2 -5 -8 -8 -13 -8 -14 0
-783 -462 -797 -479 -49 -60 -65 -139 -39 -197 17 -41 89 -158 99 -162 4 -2 8
-8 8 -13 0 -5 33 -59 73 -121 125 -194 172 -267 182 -288 5 -11 13 -20 17 -20
5 0 8 -4 8 -9 0 -6 13 -29 28 -53 16 -24 52 -79 80 -123 28 -44 56 -85 61 -92
6 -7 11 -15 11 -19 0 -4 11 -22 26 -41 14 -18 22 -33 19 -33 -3 0 3 -10 15
-22 11 -12 20 -28 20 -35 0 -7 5 -13 10 -13 6 0 10 -4 10 -9 0 -4 33 -59 74
-122 41 -63 82 -127 93 -144 153 -244 230 -364 245 -384 10 -13 18 -28 18 -32
0 -5 -293 -9 -655 -9 -360 0 -655 4 -655 8 0 21 -30 44 -64 49 -42 5 -12 34
-486 -459 -102 -105 -201 -208 -220 -227 -104 -107 -130 -140 -134 -169 -4
-36 -11 -28 259 -307 327 -339 348 -361 435 -451 122 -128 147 -138 201 -81
17 17 37 30 43 28 6 -2 40 -2 76 -2 36 1 72 2 80 2 22 -1 143 0 155 0 6 0 195
-1 420 -2 226 -1 419 1 430 4 11 4 35 9 54 12 34 6 127 42 146 57 6 4 33 26
62 48 65 50 119 121 171 225 57 114 295 599 466 949 81 164 156 320 167 347
12 27 26 49 32 49 6 0 8 3 4 6 -3 3 12 40 33 82 148 298 284 582 292 612 26
99 29 121 27 195 -4 140 -37 225 -153 394 -42 61 -76 116 -76 120 0 5 -3 11
-8 13 -4 2 -71 100 -150 218 -78 118 -148 224 -156 235 -8 11 -44 65 -80 120
-36 55 -69 105 -73 110 -4 6 -46 69 -93 140 -47 72 -87 132 -90 135 -3 3 -31
44 -63 92 -45 68 -66 91 -100 107 -41 20 -104 26 -137 14z"/>
<path d="M1779 4456 c-2 -2 -31 -6 -64 -10 -33 -3 -71 -8 -84 -11 -14 -2 -47
-7 -75 -10 -28 -3 -58 -7 -66 -10 -8 -2 -37 -6 -65 -10 -27 -3 -61 -8 -75 -10
-14 -2 -45 -6 -70 -9 -25 -3 -54 -8 -65 -10 -11 -2 -47 -7 -80 -11 -33 -4 -69
-9 -80 -10 -11 -2 -44 -6 -74 -10 -30 -4 -63 -9 -75 -11 -12 -2 -43 -6 -69 -9
-72 -9 -92 -20 -112 -61 -15 -31 -16 -43 -6 -69 6 -17 11 -36 11 -43 0 -6 -31
-56 -70 -112 -38 -56 -70 -103 -70 -105 0 -3 -113 -172 -127 -190 -24 -30
-400 -604 -410 -625 -56 -121 -65 -275 -26 -410 13 -46 27 -87 31 -90 4 -3 24
-39 45 -80 20 -41 64 -127 98 -190 74 -140 208 -398 280 -540 30 -58 56 -107
59 -110 3 -3 27 -48 54 -100 27 -52 69 -133 93 -180 25 -47 75 -141 111 -210
36 -69 84 -159 106 -200 23 -41 57 -106 76 -145 19 -38 37 -72 40 -75 3 -3 25
-43 49 -90 80 -155 132 -215 243 -283 58 -35 93 -49 163 -65 17 -4 456 -7 976
-7 l945 0 35 29 c42 35 66 71 74 111 11 55 7 1477 -5 1489 -5 5 -10 17 -10 25
0 24 -76 88 -117 97 -21 5 -492 9 -1081 9 -922 -1 -1042 1 -1037 14 6 16 270
477 316 551 15 25 37 63 49 85 64 115 156 272 167 283 7 7 13 22 13 32 0 10 4
20 8 22 5 2 28 36 51 76 l42 72 27 -14 c25 -13 32 -13 61 1 55 27 68 76 47
183 -3 14 -7 50 -10 80 -4 30 -9 69 -11 85 -3 17 -7 53 -10 80 -2 28 -4 50 -5
50 -3 0 -9 41 -15 102 -3 34 -8 72 -10 85 -3 13 -7 46 -10 73 -3 28 -8 61 -10
75 -2 14 -7 50 -10 80 -3 30 -8 62 -10 70 -2 8 -6 44 -10 80 -3 36 -8 77 -11
90 -3 14 -6 31 -6 38 -2 24 -58 62 -92 62 -18 0 -35 -2 -37 -4z"/>
</g>
</svg>
